# xmcd CD database file
#
# Track frame offsets:
#	150
#	13341
#	33884
#
# Disc length: 670 seconds
#
# Revision: 0
# Processed by: cddbd v1.5.1PL2 Copyright (c) Steve Scherf et al.
# Submitted via: CDex 1.60beta1-cs1
#
DISCID=1b029c03
DTITLE=PE'Z - REALIVE 2005 前夜祭
DYEAR=2005
DGENRE=Japanese Jazz
TTITLE0=Let's work! 情熱の行方
TTITLE1=come here
TTITLE2=collective mode
EXTD=YEAR: 2005
EXTT0=
EXTT1=
EXTT2=
PLAYORDER=
